<?xml version="1.0" encoding="UTF-8" standalone="no"?>
<!-- Generator: Adobe Illustrator 16.0.0, SVG Export Plug-In . SVG Version: 6.00 Build 0)  -->

<svg
   xmlns:dc="http://purl.org/dc/elements/1.1/"
   xmlns:cc="http://creativecommons.org/ns#"
   xmlns:rdf="http://www.w3.org/1999/02/22-rdf-syntax-ns#"
   xmlns:svg="http://www.w3.org/2000/svg"
   xmlns="http://www.w3.org/2000/svg"
   xmlns:sodipodi="http://sodipodi.sourceforge.net/DTD/sodipodi-0.dtd"
   xmlns:inkscape="http://www.inkscape.org/namespaces/inkscape"
   version="1.1"
   id="Capa_1"
   x="0px"
   y="0px"
   width="591.99677"
   height="592.00183"
   viewBox="0 0 447.17725 447.18107"
   xml:space="preserve"
   inkscape:version="0.91 r13725"
   sodipodi:docname="dna-chromosome.svg"><metadata
     id="metadata43"><rdf:RDF><cc:Work
         rdf:about=""><dc:format>image/svg+xml</dc:format><dc:type
           rdf:resource="http://purl.org/dc/dcmitype/StillImage" /><dc:title></dc:title></cc:Work></rdf:RDF></metadata><defs
     id="defs41" /><sodipodi:namedview
     pagecolor="#ffffff"
     bordercolor="#666666"
     borderopacity="1"
     objecttolerance="10"
     gridtolerance="10"
     guidetolerance="10"
     inkscape:pageopacity="0"
     inkscape:pageshadow="2"
     inkscape:window-width="697"
     inkscape:window-height="747"
     id="namedview39"
     showgrid="false"
     fit-margin-top="40"
     fit-margin-left="40"
     fit-margin-right="40"
     fit-margin-bottom="40"
     inkscape:zoom="1"
     inkscape:cx="228.3391"
     inkscape:cy="294.47172"
     inkscape:window-x="99"
     inkscape:window-y="0"
     inkscape:window-maximized="0"
     inkscape:current-layer="Capa_1" /><g
     id="g3"
     transform="translate(30.211731,30.214185)"><g
       id="g5"><path
         d="m 376.717,99.329 c -6.755,-1.51 -13.967,3.125 -15.372,9.421 -0.391,1.489 -1.813,6.371 -5.212,12.938 L 265.029,30.586 c 7.481,-3.812 12.712,-5.022 12.85,-5.062 16.64,-3.903 10.707,-29.045 -5.957,-25.106 -1.032,0.252 -102.057,26.625 -85.457,170.831 -6.632,-0.432 -13.243,-0.64 -19.731,-0.64 -117.787,0 -162.859,74.027 -164.708,77.144 -8.812,14.855 13.501,27.352 22.133,13.24 0.685,-1.117 4.219,-6.678 11.328,-14.195 l 104.52,104.556 c -7.446,7.044 -13.024,10.604 -14.081,11.253 -14.661,8.73 -1.567,30.744 13.114,22.218 3.513,-2.102 85.434,-52.386 76.51,-184.503 105.631,12.262 160.172,-41.383 170.873,-85.563 1.607,-7.006 -2.866,-13.977 -9.706,-15.43 z M 187.878,254.381 132.436,198.927 c 17.69,-2.679 37.398,-3.213 57.024,-1.585 1.667,19.93 1.132,39.091 -1.582,57.039 z m -86.237,-48.608 79.032,79.491 c -7.914,23.425 -17.519,39.163 -24.28,47.047 L 54.602,230.165 c 17.591,-14.28 40.403,-21.415 47.039,-24.392 z m 109.5,-84.479 54.104,54.301 c -15.937,1.525 -33.777,0.991 -52.464,-1.525 -2.577,-19.011 -3.135,-36.752 -1.64,-52.776 z m 85.262,48.096 -79.39,-78.735 c 5.782,-18.687 14.087,-31.667 25.154,-43.34 l 97.691,96.263 -1.038,1.291 c -15.546,15.054 -35.788,23.398 -42.417,24.521 z"
         id="path7"
         inkscape:connector-curvature="0"
         style="fill:#cccccc" /></g></g><g
     id="g9"
     transform="translate(30.211731,30.214185)" /><g
     id="g11"
     transform="translate(30.211731,30.214185)" /><g
     id="g13"
     transform="translate(30.211731,30.214185)" /><g
     id="g15"
     transform="translate(30.211731,30.214185)" /><g
     id="g17"
     transform="translate(30.211731,30.214185)" /><g
     id="g19"
     transform="translate(30.211731,30.214185)" /><g
     id="g21"
     transform="translate(30.211731,30.214185)" /><g
     id="g23"
     transform="translate(30.211731,30.214185)" /><g
     id="g25"
     transform="translate(30.211731,30.214185)" /><g
     id="g27"
     transform="translate(30.211731,30.214185)" /><g
     id="g29"
     transform="translate(30.211731,30.214185)" /><g
     id="g31"
     transform="translate(30.211731,30.214185)" /><g
     id="g33"
     transform="translate(30.211731,30.214185)" /><g
     id="g35"
     transform="translate(30.211731,30.214185)" /><g
     id="g37"
     transform="translate(30.211731,30.214185)" /><path
     style="fill:#ff0000;fill-opacity:0"
     d="m 210.31896,549.66946 c -6.87666,-2.56831 -12.26208,-11.75943 -10.65114,-18.17794 0.73891,-2.94406 6.64967,-9.54101 13.13502,-14.65988 6.48535,-5.11887 11.84603,-10.28903 11.91263,-11.48924 0.0666,-1.2002 -30.99902,-33.29091 -69.03469,-71.31266 l -69.155784,-69.13045 -9.368381,12.40834 c -5.15261,6.82459 -11.709043,13.29824 -14.569852,14.38592 -6.765549,2.57226 -15.488358,-1.5513 -19.889179,-9.40227 -3.041742,-5.4264 -2.961481,-6.58313 0.978472,-14.1017 7.128127,-13.60252 43.650502,-48.17998 64.291574,-60.86786 44.30641,-27.23478 90.32553,-39.39578 149.4113,-39.4834 l 29.28813,-0.0434 0.17443,-41.76224 c 0.15903,-38.05437 0.68732,-43.67834 5.94988,-63.34337 14.07993,-52.61382 44.4096,-91.731681 87.71293,-113.128254 19.11582,-9.445318 29.72184,-10.415878 35.52375,-3.250797 4.67244,5.770201 5.29439,15.108558 1.35077,20.280839 -1.49152,1.956217 -8.44728,5.675494 -15.45721,8.265062 l -12.74535,4.708304 60.45962,60.488576 c 33.25291,33.26865 61.08512,60.48851 61.84943,60.48851 0.76431,0 3.58266,-5.40314 6.26295,-12.00696 2.6803,-6.60383 6.63459,-12.9496 8.78731,-14.1017 6.43775,-3.44538 14.75376,-2.38771 19.6393,2.49782 6.37351,6.3735 4.60021,19.51469 -5.35018,39.64791 -19.8661,40.19632 -64.22324,71.5448 -119.27552,84.29545 -16.12776,3.73534 -27.19725,4.63525 -58.40759,4.74832 l -38.50852,0.1395 4e-5,28.53018 c 1.3e-4,59.08881 -15.22493,113.09418 -43.94433,155.8766 -12.43086,18.51787 -29.81175,37.92911 -43.23369,48.28407 -13.90746,10.72952 -20.80581,13.58095 -27.13612,11.21671 z m 46.11335,-81.54692 c 7.86862,-11.85458 22.64153,-43.95157 22.64153,-49.19309 0,-1.40617 -23.67457,-26.2003 -52.61017,-55.09803 l -52.61016,-52.54133 -18.8876,8.38979 c -19.28229,8.56513 -32.43174,15.77387 -39.06985,21.41872 -3.40486,2.8954 1.916,8.93286 62.78034,71.23545 36.57528,37.43954 67.19849,68.07192 68.05158,68.07192 0.85309,0 5.22004,-5.52754 9.70433,-12.28343 z m 34.266,-99.98776 c 0.7396,-4.47458 1.35547,-21.64161 1.3686,-38.14897 l 0.0239,-30.01337 -36.70491,0.72524 c -20.18769,0.39888 -37.4703,1.49258 -38.40579,2.43048 -1.56613,1.57014 67.91517,73.14221 71.00559,73.14221 0.75236,0 1.97304,-3.66101 2.71265,-8.13559 z m 99.82114,-95.35521 c 1.54247,-1.54246 -67.68998,-72.23801 -70.74297,-72.23801 -2.05609,0 -1.95343,50.02062 0.12691,61.83051 1.46886,8.33868 1.90929,8.72884 11.26481,9.97925 14.19977,1.89785 57.56871,2.21077 59.35125,0.42825 z m 63.19846,-16.25246 c 16.1646,-7.94244 36.27674,-22.91184 35.38131,-26.33418 C 488.21068,226.797 362.71779,102.90499 360.20946,102.9474 c -2.88559,0.0488 -17.78195,20.98996 -24.66859,34.6789 -11.47769,22.81481 -15.36688,16.11431 43.60199,75.12003 42.88739,42.91422 53.63725,52.59744 57.18684,51.51261 2.40419,-0.73479 10.22889,-4.21411 17.38821,-7.73183 z"
     id="path3528"
     inkscape:connector-curvature="0"
     transform="scale(0.75537107,0.75537107)" /><path
     style="fill:#808080;fill-opacity:0"
     d="m 210.31896,549.66946 c -6.87666,-2.56831 -12.26208,-11.75943 -10.65114,-18.17794 0.73891,-2.94406 6.64967,-9.54101 13.13502,-14.65988 6.48535,-5.11887 11.84603,-10.28903 11.91263,-11.48924 0.0666,-1.2002 -30.99902,-33.29091 -69.03469,-71.31266 l -69.155784,-69.13045 -9.368381,12.40834 c -5.15261,6.82459 -11.709043,13.29824 -14.569852,14.38592 -6.765549,2.57226 -15.488358,-1.5513 -19.889179,-9.40227 -3.041742,-5.4264 -2.961481,-6.58313 0.978472,-14.1017 7.128127,-13.60252 43.650502,-48.17998 64.291574,-60.86786 44.30641,-27.23478 90.32553,-39.39578 149.4113,-39.4834 l 29.28813,-0.0434 0.17443,-41.76224 c 0.15903,-38.05437 0.68732,-43.67834 5.94988,-63.34337 14.07993,-52.61382 44.4096,-91.731681 87.71293,-113.128254 19.11582,-9.445318 29.72184,-10.415878 35.52375,-3.250797 4.67244,5.770201 5.29439,15.108558 1.35077,20.280839 -1.49152,1.956217 -8.44728,5.675494 -15.45721,8.265062 l -12.74535,4.708304 60.45962,60.488576 c 33.25291,33.26865 61.08512,60.48851 61.84943,60.48851 0.76431,0 3.58266,-5.40314 6.26295,-12.00696 2.6803,-6.60383 6.63459,-12.9496 8.78731,-14.1017 6.43775,-3.44538 14.75376,-2.38771 19.6393,2.49782 6.37351,6.3735 4.60021,19.51469 -5.35018,39.64791 -19.8661,40.19632 -64.22324,71.5448 -119.27552,84.29545 -16.12776,3.73534 -27.19725,4.63525 -58.40759,4.74832 l -38.50852,0.1395 4e-5,28.53018 c 1.3e-4,59.08881 -15.22493,113.09418 -43.94433,155.8766 -12.43086,18.51787 -29.81175,37.92911 -43.23369,48.28407 -13.90746,10.72952 -20.80581,13.58095 -27.13612,11.21671 z m 46.11335,-81.54692 c 7.86862,-11.85458 22.64153,-43.95157 22.64153,-49.19309 0,-1.40617 -23.67457,-26.2003 -52.61017,-55.09803 l -52.61016,-52.54133 -18.8876,8.38979 c -19.28229,8.56513 -32.43174,15.77387 -39.06985,21.41872 -3.40486,2.8954 1.916,8.93286 62.78034,71.23545 36.57528,37.43954 67.19849,68.07192 68.05158,68.07192 0.85309,0 5.22004,-5.52754 9.70433,-12.28343 z m 34.266,-99.98776 c 0.7396,-4.47458 1.35547,-21.64161 1.3686,-38.14897 l 0.0239,-30.01337 -36.70491,0.72524 c -20.18769,0.39888 -37.4703,1.49258 -38.40579,2.43048 -1.56613,1.57014 67.91517,73.14221 71.00559,73.14221 0.75236,0 1.97304,-3.66101 2.71265,-8.13559 z m 99.82114,-95.35521 c 1.54247,-1.54246 -67.68998,-72.23801 -70.74297,-72.23801 -2.05609,0 -1.95343,50.02062 0.12691,61.83051 1.46886,8.33868 1.90929,8.72884 11.26481,9.97925 14.19977,1.89785 57.56871,2.21077 59.35125,0.42825 z m 63.19846,-16.25246 c 16.1646,-7.94244 36.27674,-22.91184 35.38131,-26.33418 C 488.21068,226.797 362.71779,102.90499 360.20946,102.9474 c -2.88559,0.0488 -17.78195,20.98996 -24.66859,34.6789 -11.47769,22.81481 -15.36688,16.11431 43.60199,75.12003 42.88739,42.91422 53.63725,52.59744 57.18684,51.51261 2.40419,-0.73479 10.22889,-4.21411 17.38821,-7.73183 z"
     id="path3530"
     inkscape:connector-curvature="0"
     transform="scale(0.75537107,0.75537107)" /><path
     style="fill:#808080;fill-opacity:0"
     d="m 210.31896,549.66946 c -6.87666,-2.56831 -12.26208,-11.75943 -10.65114,-18.17794 0.73891,-2.94406 6.64967,-9.54101 13.13502,-14.65988 6.48535,-5.11887 11.84603,-10.28903 11.91263,-11.48924 0.0666,-1.2002 -30.99902,-33.29091 -69.03469,-71.31266 l -69.155784,-69.13045 -9.368381,12.40834 c -5.15261,6.82459 -11.709043,13.29824 -14.569852,14.38592 -6.765549,2.57226 -15.488358,-1.5513 -19.889179,-9.40227 -3.041742,-5.4264 -2.961481,-6.58313 0.978472,-14.1017 7.128127,-13.60252 43.650502,-48.17998 64.291574,-60.86786 44.30641,-27.23478 90.32553,-39.39578 149.4113,-39.4834 l 29.28813,-0.0434 0.17443,-41.76224 c 0.15903,-38.05437 0.68732,-43.67834 5.94988,-63.34337 14.07993,-52.61382 44.4096,-91.731681 87.71293,-113.128254 19.11582,-9.445318 29.72184,-10.415878 35.52375,-3.250797 4.67244,5.770201 5.29439,15.108558 1.35077,20.280839 -1.49152,1.956217 -8.44728,5.675494 -15.45721,8.265062 l -12.74535,4.708304 60.45962,60.488576 c 33.25291,33.26865 61.08512,60.48851 61.84943,60.48851 0.76431,0 3.58266,-5.40314 6.26295,-12.00696 2.6803,-6.60383 6.63459,-12.9496 8.78731,-14.1017 6.43775,-3.44538 14.75376,-2.38771 19.6393,2.49782 6.37351,6.3735 4.60021,19.51469 -5.35018,39.64791 -19.8661,40.19632 -64.22324,71.5448 -119.27552,84.29545 -16.12776,3.73534 -27.19725,4.63525 -58.40759,4.74832 l -38.50852,0.1395 4e-5,28.53018 c 1.3e-4,59.08881 -15.22493,113.09418 -43.94433,155.8766 -12.43086,18.51787 -29.81175,37.92911 -43.23369,48.28407 -13.90746,10.72952 -20.80581,13.58095 -27.13612,11.21671 z m 46.11335,-81.54692 c 7.86862,-11.85458 22.64153,-43.95157 22.64153,-49.19309 0,-1.40617 -23.67457,-26.2003 -52.61017,-55.09803 l -52.61016,-52.54133 -18.8876,8.38979 c -19.28229,8.56513 -32.43174,15.77387 -39.06985,21.41872 -3.40486,2.8954 1.916,8.93286 62.78034,71.23545 36.57528,37.43954 67.19849,68.07192 68.05158,68.07192 0.85309,0 5.22004,-5.52754 9.70433,-12.28343 z m 34.266,-99.98776 c 0.7396,-4.47458 1.35547,-21.64161 1.3686,-38.14897 l 0.0239,-30.01337 -36.70491,0.72524 c -20.18769,0.39888 -37.4703,1.49258 -38.40579,2.43048 -1.56613,1.57014 67.91517,73.14221 71.00559,73.14221 0.75236,0 1.97304,-3.66101 2.71265,-8.13559 z m 99.82114,-95.35521 c 1.54247,-1.54246 -67.68998,-72.23801 -70.74297,-72.23801 -2.05609,0 -1.95343,50.02062 0.12691,61.83051 1.46886,8.33868 1.90929,8.72884 11.26481,9.97925 14.19977,1.89785 57.56871,2.21077 59.35125,0.42825 z m 63.19846,-16.25246 c 16.1646,-7.94244 36.27674,-22.91184 35.38131,-26.33418 C 488.21068,226.797 362.71779,102.90499 360.20946,102.9474 c -2.88559,0.0488 -17.78195,20.98996 -24.66859,34.6789 -11.47769,22.81481 -15.36688,16.11431 43.60199,75.12003 42.88739,42.91422 53.63725,52.59744 57.18684,51.51261 2.40419,-0.73479 10.22889,-4.21411 17.38821,-7.73183 z"
     id="path3532"
     inkscape:connector-curvature="0"
     transform="scale(0.75537107,0.75537107)" /><path
     style="fill:#2b0000;fill-opacity:0"
     d="m 210.31896,549.66946 c -6.87666,-2.56831 -12.26208,-11.75943 -10.65114,-18.17794 0.73891,-2.94406 6.64967,-9.54101 13.13502,-14.65988 6.48535,-5.11887 11.84603,-10.28903 11.91263,-11.48924 0.0666,-1.2002 -30.99902,-33.29091 -69.03469,-71.31266 l -69.155784,-69.13045 -9.368381,12.40834 c -5.15261,6.82459 -11.709043,13.29824 -14.569852,14.38592 -6.765549,2.57226 -15.488358,-1.5513 -19.889179,-9.40227 -3.044185,-5.43076 -2.962412,-6.5646 1.005934,-13.94814 7.784796,-14.48446 35.448908,-41.51767 57.528952,-56.21695 26.13838,-17.40104 49.47119,-27.65842 82.14798,-36.11329 22.0013,-5.69266 30.12133,-6.65867 64.23577,-7.64195 l 39.05084,-1.12558 0.17443,-41.4875 c 0.15837,-37.61304 0.7065,-43.47376 5.87062,-62.75624 14.10374,-52.66241 44.56186,-92.080126 87.57149,-113.331581 19.32628,-9.549303 29.92577,-10.545615 35.74445,-3.359845 4.67244,5.770201 5.29439,15.108558 1.35077,20.280839 -1.49152,1.956217 -8.44728,5.675493 -15.45721,8.265061 l -12.74535,4.708305 60.45962,60.488571 c 33.25291,33.26872 61.08512,60.48858 61.84943,60.48858 0.76431,0 3.58266,-5.40314 6.26295,-12.00696 2.6803,-6.60383 6.63459,-12.9496 8.78731,-14.1017 6.43775,-3.44538 14.75376,-2.38771 19.6393,2.49782 6.37351,6.3735 4.60021,19.51469 -5.35018,39.64791 -19.8661,40.19632 -64.22324,71.5448 -119.27552,84.29545 -16.12776,3.73534 -27.19725,4.63525 -58.40759,4.74832 l -38.50852,0.1395 4e-5,28.53018 c 1.3e-4,59.08881 -15.22493,113.09418 -43.94433,155.8766 -12.43086,18.51787 -29.81175,37.92911 -43.23369,48.28407 -13.90746,10.72952 -20.80581,13.58095 -27.13612,11.21671 z m 46.42455,-81.73807 c 7.87328,-12.29438 22.33033,-44.01914 22.33033,-49.00194 0,-1.40617 -23.67457,-26.21455 -52.61017,-55.12971 l -52.61016,-52.573 -20.83725,9.387 c -23.25181,10.47476 -40.03964,20.91058 -38.92828,24.19901 1.11315,3.29374 130.71165,135.59322 132.82499,135.59322 1.01304,0 5.43678,-5.61356 9.83054,-12.47458 z m 33.9548,-99.79661 c 0.7396,-4.47458 1.35547,-21.64161 1.3686,-38.14897 l 0.0239,-30.01337 -36.70491,0.72524 c -20.18769,0.39888 -37.4703,1.49258 -38.40579,2.43048 -1.56613,1.57014 67.91517,73.14221 71.00559,73.14221 0.75236,0 1.97304,-3.66101 2.71265,-8.13559 z m 101.18909,-95.4823 c 0,-2.12579 -70.03229,-72.11092 -72.15954,-72.11092 -2.0201,0 -1.87767,50.17466 0.17551,61.83051 1.46886,8.33868 1.90928,8.72884 11.2648,9.97925 14.66776,1.96039 60.71921,2.18882 60.71921,0.30116 z m 60.13443,-15.00333 c 15.02264,-7.0193 37.94776,-24.04792 37.0904,-27.55049 -0.85775,-3.50411 -126.39273,-127.21756 -128.96308,-127.09181 -3.1345,0.15336 -17.15399,19.66436 -24.09613,33.53471 -12.06408,24.10396 -16.085,16.99296 43.08984,76.20477 42.84711,42.87389 53.64059,52.59792 57.18684,51.52053 2.40419,-0.73043 9.46566,-3.7084 15.69213,-6.61771 z"
     id="path3536"
     inkscape:connector-curvature="0"
     transform="scale(0.75537107,0.75537107)" /><path
     style="fill:#2b0000;fill-opacity:0"
     d="m 210.31896,549.66946 c -6.87666,-2.56831 -12.26208,-11.75943 -10.65114,-18.17794 0.73891,-2.94406 6.64967,-9.54101 13.13502,-14.65988 6.48535,-5.11887 11.84603,-10.28903 11.91263,-11.48924 0.0666,-1.2002 -30.99902,-33.29091 -69.03469,-71.31266 l -69.155784,-69.13045 -9.368381,12.40834 c -5.15261,6.82459 -11.709043,13.29824 -14.569852,14.38592 -6.765549,2.57226 -15.488358,-1.5513 -19.889179,-9.40227 -3.044185,-5.43076 -2.962412,-6.5646 1.005934,-13.94814 7.784796,-14.48446 35.448908,-41.51767 57.528952,-56.21695 26.13838,-17.40104 49.47119,-27.65842 82.14798,-36.11329 22.0013,-5.69266 30.12133,-6.65867 64.23577,-7.64195 l 39.05084,-1.12558 0.17443,-41.4875 c 0.15837,-37.61304 0.7065,-43.47376 5.87062,-62.75624 14.10374,-52.66241 44.56186,-92.080126 87.57149,-113.331581 19.32628,-9.549303 29.92577,-10.545615 35.74445,-3.359845 4.67244,5.770201 5.29439,15.108558 1.35077,20.280839 -1.49152,1.956217 -8.44728,5.675493 -15.45721,8.265061 l -12.74535,4.708305 60.45962,60.488571 c 33.25291,33.26872 61.08512,60.48858 61.84943,60.48858 0.76431,0 3.58266,-5.40314 6.26295,-12.00696 2.6803,-6.60383 6.63459,-12.9496 8.78731,-14.1017 6.43775,-3.44538 14.75376,-2.38771 19.6393,2.49782 6.37351,6.3735 4.60021,19.51469 -5.35018,39.64791 -19.8661,40.19632 -64.22324,71.5448 -119.27552,84.29545 -16.12776,3.73534 -27.19725,4.63525 -58.40759,4.74832 l -38.50852,0.1395 4e-5,28.53018 c 1.3e-4,59.08881 -15.22493,113.09418 -43.94433,155.8766 -12.43086,18.51787 -29.81175,37.92911 -43.23369,48.28407 -13.90746,10.72952 -20.80581,13.58095 -27.13612,11.21671 z m 46.42455,-81.73807 c 7.87328,-12.29438 22.33033,-44.01914 22.33033,-49.00194 0,-1.40617 -23.67457,-26.21455 -52.61017,-55.12971 l -52.61016,-52.573 -20.83725,9.387 c -23.25181,10.47476 -40.03964,20.91058 -38.92828,24.19901 1.11315,3.29374 130.71165,135.59322 132.82499,135.59322 1.01304,0 5.43678,-5.61356 9.83054,-12.47458 z m 33.9548,-99.79661 c 0.7396,-4.47458 1.35547,-21.64161 1.3686,-38.14897 l 0.0239,-30.01337 -36.70491,0.72524 c -20.18769,0.39888 -37.4703,1.49258 -38.40579,2.43048 -1.56613,1.57014 67.91517,73.14221 71.00559,73.14221 0.75236,0 1.97304,-3.66101 2.71265,-8.13559 z m 101.18909,-95.4823 c 0,-2.12579 -70.03229,-72.11092 -72.15954,-72.11092 -2.0201,0 -1.87767,50.17466 0.17551,61.83051 1.46886,8.33868 1.90928,8.72884 11.2648,9.97925 14.66776,1.96039 60.71921,2.18882 60.71921,0.30116 z m 60.13443,-15.00333 c 15.02264,-7.0193 37.94776,-24.04792 37.0904,-27.55049 -0.85775,-3.50411 -126.39273,-127.21756 -128.96308,-127.09181 -3.1345,0.15336 -17.15399,19.66436 -24.09613,33.53471 -12.06408,24.10396 -16.085,16.99296 43.08984,76.20477 42.84711,42.87389 53.64059,52.59792 57.18684,51.52053 2.40419,-0.73043 9.46566,-3.7084 15.69213,-6.61771 z"
     id="path3538"
     inkscape:connector-curvature="0"
     transform="scale(0.75537107,0.75537107)" /><path
     style="fill:#00ffff;fill-opacity:0"
     d="m 210.31896,549.66946 c -6.87666,-2.56831 -12.26208,-11.75943 -10.65114,-18.17794 0.73891,-2.94406 6.64967,-9.54101 13.13502,-14.65988 6.48535,-5.11887 11.84603,-10.28903 11.91263,-11.48924 0.0666,-1.2002 -30.99902,-33.29091 -69.03469,-71.31266 l -69.155784,-69.13045 -9.368381,12.40834 c -5.15261,6.82459 -11.709043,13.29824 -14.569852,14.38592 -6.765549,2.57226 -15.488358,-1.5513 -19.889179,-9.40227 -3.044185,-5.43076 -2.962412,-6.5646 1.005934,-13.94814 7.784796,-14.48446 35.448908,-41.51767 57.528952,-56.21695 26.13838,-17.40104 49.47119,-27.65842 82.14798,-36.11329 22.0013,-5.69266 30.12133,-6.65867 64.23577,-7.64195 l 39.05084,-1.12558 0.17443,-41.4875 c 0.15837,-37.61304 0.7065,-43.47376 5.87062,-62.75624 14.10374,-52.66241 44.56186,-92.080126 87.57149,-113.331581 19.32628,-9.549303 29.92577,-10.545615 35.74445,-3.359845 4.67244,5.770201 5.29439,15.108558 1.35077,20.280839 -1.49152,1.956217 -8.44728,5.675493 -15.45721,8.265061 l -12.74535,4.708305 60.45962,60.488571 c 33.25291,33.26872 61.08512,60.48858 61.84943,60.48858 0.76431,0 3.58266,-5.40314 6.26295,-12.00696 2.6803,-6.60383 6.63459,-12.9496 8.78731,-14.1017 6.43775,-3.44538 14.75376,-2.38771 19.6393,2.49782 6.37351,6.3735 4.60021,19.51469 -5.35018,39.64791 -19.8661,40.19632 -64.22324,71.5448 -119.27552,84.29545 -16.12776,3.73534 -27.19725,4.63525 -58.40759,4.74832 l -38.50852,0.1395 4e-5,28.53018 c 1.3e-4,59.08881 -15.22493,113.09418 -43.94433,155.8766 -12.43086,18.51787 -29.81175,37.92911 -43.23369,48.28407 -13.90746,10.72952 -20.80581,13.58095 -27.13612,11.21671 z m 46.42455,-81.73807 c 7.87328,-12.29438 22.33033,-44.01914 22.33033,-49.00194 0,-1.40617 -23.67457,-26.21455 -52.61017,-55.12971 l -52.61016,-52.573 -20.83725,9.387 c -23.25181,10.47476 -40.03964,20.91058 -38.92828,24.19901 1.11315,3.29374 130.71165,135.59322 132.82499,135.59322 1.01304,0 5.43678,-5.61356 9.83054,-12.47458 z m 33.9548,-99.79661 c 0.7396,-4.47458 1.35547,-21.64161 1.3686,-38.14897 l 0.0239,-30.01337 -36.70491,0.72524 c -20.18769,0.39888 -37.4703,1.49258 -38.40579,2.43048 -1.56613,1.57014 67.91517,73.14221 71.00559,73.14221 0.75236,0 1.97304,-3.66101 2.71265,-8.13559 z m 101.18909,-95.4823 c 0,-2.12579 -70.03229,-72.11092 -72.15954,-72.11092 -2.0201,0 -1.87767,50.17466 0.17551,61.83051 1.46886,8.33868 1.90928,8.72884 11.2648,9.97925 14.66776,1.96039 60.71921,2.18882 60.71921,0.30116 z m 60.13443,-15.00333 c 15.02264,-7.0193 37.94776,-24.04792 37.0904,-27.55049 -0.85775,-3.50411 -126.39273,-127.21756 -128.96308,-127.09181 -3.1345,0.15336 -17.15399,19.66436 -24.09613,33.53471 -12.06408,24.10396 -16.085,16.99296 43.08984,76.20477 42.84711,42.87389 53.64059,52.59792 57.18684,51.52053 2.40419,-0.73043 9.46566,-3.7084 15.69213,-6.61771 z"
     id="path3540"
     inkscape:connector-curvature="0"
     transform="scale(0.75537107,0.75537107)" /></svg>